<svg width="40" height="50" viewBox="0 0 40 50" fill="none" xmlns="http://www.w3.org/2000/svg">
<path d="M15.625 15.625V0.40625C14.1001 0.828058 12.7089 1.63395 11.5844 2.74688L2.74688 11.5844C1.63616 12.7106 0.830632 14.1012 0.40625 15.625H15.625Z" fill="#7C7C87"/>
<path d="M35.1656 0H17.5006V12.5C17.5006 13.8261 16.9738 15.0979 16.0361 16.0355C15.0984 16.9732 13.8267 17.5 12.5006 17.5H0.000584277V45C-0.019486 46.3037 0.478218 47.5621 1.38457 48.4994C2.29093 49.4367 3.53197 49.9763 4.83558 50H35.1656C36.4692 49.9763 37.7102 49.4367 38.6166 48.4994C39.523 47.5621 40.0207 46.3037 40.0006 45V5C40.0207 3.69632 39.523 2.43788 38.6166 1.50059C37.7102 0.563309 36.4692 0.0236719 35.1656 0Z" fill="#7C7C87"/>
</svg>
